# xmcd
#
# Track frame offsets:
#	150
#	11342
#	20768
#	32732
#	41434
#	50010
#	61197
#	71394
#	81506
#	91778
#	101936
#	113645
#	122169
#	130956
#	140062
#	150370
#	163088
#	175537
#	182515
#	191065
#	200176
#	212073
#	221635
#	234311
#	244493
#	259190
#	269395
#	281082
#
# Disc length: 3869 seconds
# Revision: 1
# Processed by: cddbd v1.5.2PL0 Copyright (c) Steve Scherf et al.
# Submitted via: dBpowerAMP V12.0
#
DISCID=9e0f1b1c
DTITLE=Various Artist - Rhythm 'N' Blusin' by the Bayou: Mad Dogs, Sweet Daddies and Pretty Babies
DYEAR=2015
DGENRE=R&B
TTITLE0=Little Victor and His Orchestra - Papa Lou and Gran
TTITLE1=Katie Webster - Hoo Wee, Sweet Daddy
TTITLE2=Tabby Thomas - I'd Love to Tell
TTITLE3=Lester Robertson - Pretty Woman (Take It Home to Grandma)
TTITLE4=Guitar Gable - Long Way from Home
TTITLE5=Anna Mae Rogers - I Called You Up Daddy
TTITLE6=Mad Dog Sheffield - I Got Fever (Wicked Fever)
TTITLE7=Carol Fran - Knock Knock
TTITLE8=Leroy Washington - Sally Lou
TTITLE9=Lionel Torrence - Rooty Tooty
TTITLE10=Sad Leroy White - A Merry Christmas
TTITLE11=Wonder Boy Travis - You Know Yeah
TTITLE12=Lazy Lester - Tell Me Pretty Baby
TTITLE13=Clifton Chenier - Hey Ma Ma
TTITLE14=Eddie Williams - Ain't Nothing Shakin' (But Leaves on the Tree)
TTITLE15=Mad Dog Sheffield - Mad Dog
TTITLE16=King Karl and Guitar Gable - Mary Lou
TTITLE17=Lester Robertson - Hoo Wee Pretty Baby
TTITLE18=Carol Fran - One More Chance
TTITLE19=Frank Simien - Don't Let Me Down
TTITLE20=Leroy Washington - Hello Baby, What You Know
TTITLE21=Katie Webster and Ashton Conroy - I Want You to Love Me
TTITLE22=Katie Webster and Bobby Jay - Hey Mr. Love
TTITLE23=Jimmy Dotson - I Need Your Love
TTITLE24=Charles Morris - When It Rains It Pours
TTITLE25=Leroy Washington - Baby Please Come Home
TTITLE26=Clarence Garlow - I'll Never Hold It Against You
TTITLE27=Lester Robertson and The Upsetters - Take It Home to Grandma
EXTD=
EXTT0=
EXTT1=
EXTT2=
EXTT3=
EXTT4=
EXTT5=
EXTT6=
EXTT7=
EXTT8=
EXTT9=
EXTT10=
EXTT11=
EXTT12=
EXTT13=
EXTT14=
EXTT15=
EXTT16=
EXTT17=
EXTT18=
EXTT19=
EXTT20=
EXTT21=
EXTT22=
EXTT23=
EXTT24=
EXTT25=
EXTT26=
EXTT27=
PLAYORDER=
